# xmcd
#
# Track frame offsets: 
#        150
#        26242
#        43618
#        54525
#        78862
#        89806
#        104853
#        118284
#        136172
#        154708
#        167799
#        182300
#        197838
#        209846
#        228924
#        244227
#        257420
#        274095
#
# Disc length: 3837 seconds
#
# Revision: 2
# Processed by: cddbd v1.5.2PL0 Copyright (c) Steve Scherf et al.
# Submitted via: ExactAudioCopyFreeDBPlugin 1.0
#
DISCID=060efb12
DTITLE=Various Artist - Simply Late Night Jazz - CD 2 Moonlight Serenade
DYEAR=2008
DGENRE=Jazz
TTITLE0=Jon Hendricks - In Summer
TTITLE1=Carmen McRae - I'm Glad There Is You
TTITLE2=Mel Tormé - Sophisticated Lady
TTITLE3=Morgana King - My Funny Valentine
TTITLE4=Jimmy Scott - Someone To Watch Over Me
TTITLE5=Joanna Eden - Don't Know Why
TTITLE6=Joe Williams - Detour Ahead
TTITLE7=Saskia - The Look Of Love
TTITLE8=Mark Murphy - Time On My Hands
TTITLE9=Mildred Bailey - Born To Be Blue
TTITLE10=Earl Coleman with Charlie Parker - This Is Always
TTITLE11=Ann Hampton Callaway - Teach Me Tonight
TTITLE12=Johnny Hartman - I Let A Song Go Out Of My Heart
TTITLE13=Carol Welsman - Tha Man I Love
TTITLE14=Chris Ingham - Have You Met Miss Jones?
TTITLE15=Mary Ann McCall - Easy Living
TTITLE16=Georgina Smit - Making Love
TTITLE17=Billy Eckstine - You Call It Madness (But I Call It Love)
EXTD=YEAR: 2008
EXTT0=
EXTT1=
EXTT2=
EXTT3=
EXTT4=
EXTT5=
EXTT6=
EXTT7=
EXTT8=
EXTT9=
EXTT10=
EXTT11=
EXTT12=
EXTT13=
EXTT14=
EXTT15=
EXTT16=
EXTT17=
PLAYORDER=
